<svg xmlns="http://www.w3.org/2000/svg" width="123.042" height="36.602" viewBox="0 0 123.042 36.602">
  <g id="whitelogo" transform="translate(-52.193 104.053)">
    <g id="Group_2" data-name="Group 2" transform="translate(52.693 -103.475)">
      <path id="Union_73" data-name="Union 73" d="M24616.475,22480.789v-3.141l15.453,6.895.057-.031v5.113l-.121.066Zm19.029,1.8,8.615-4.986v-12.078l-12.268-7.1-15.453,8.063v-3.344l15.387-8.9,15.387,8.9v17.8l-11.67,6.748Zm-19.029-8.008v-4.7l15.51-7.09v17.82Zm18.926-9.918,4.959,2.871v7.854l-4.959,2.873Z" transform="translate(-24616.398 -22454.242)" fill="#fff" stroke="rgba(0,0,0,0)" stroke-miterlimit="10" stroke-width="1"/>
      <path id="Path_10" data-name="Path 10" d="M130.815,520.21h-4.421V502.445h3.917l.246,1.262a9.185,9.185,0,0,1,2.432-1.153,7.675,7.675,0,0,1,2.113-.37h1.135a3.567,3.567,0,0,1,3.781,3.807v5.84a3.725,3.725,0,0,1-4.029,4.066h-5.174Zm0-13.837v6.1H134.6a.892.892,0,0,0,.758-.256.9.9,0,0,0,.251-.763v-4.7a.867.867,0,0,0-.887-.893h-.874a10.627,10.627,0,0,0-3.031.509Zm10.838,5.964V511.2a3.577,3.577,0,0,1,3.784-3.807h5.172v-1.016a.873.873,0,0,0-.252-.639.844.844,0,0,0-.621-.254q-1.639,0-3.622.155t-3.189.229v-3.172a76.776,76.776,0,0,1,8.315-.508,3.577,3.577,0,0,1,3.789,3.807V515.9h-3.917l-.243-1.266a8.984,8.984,0,0,1-2.432,1.15,7.841,7.841,0,0,1-2.113.363h-.887a3.562,3.562,0,0,1-3.784-3.807Zm4.425-.881v.251a.872.872,0,0,0,.252.638.843.843,0,0,0,.62.254h.629a10.626,10.626,0,0,0,3.031-.508v-1.527h-3.659a.831.831,0,0,0-.627.254.881.881,0,0,0-.245.638Zm14.623,3.424-5.161-12.436h4.653l3.154,8.627L166,502.444h4.671L165.628,516.4a7.25,7.25,0,0,1-1.895,3.036,4.6,4.6,0,0,1-3.158,1.03,25.24,25.24,0,0,1-3.276-.261v-3.3h2.267q.96,0,1.244-.532a1.051,1.051,0,0,0,.123-.522,2.682,2.682,0,0,0-.232-.976Zm11.48-9.015h-1.516v-3.421h1.514l.5-3.051h3.907v3.051h3.153v3.421h-3.153v5.841a.865.865,0,0,0,.887.892h3.276v3.3a47.659,47.659,0,0,1-4.794.247,3.555,3.555,0,0,1-3.78-3.807Zm9.2,6.472V511.2a3.577,3.577,0,0,1,3.784-3.807h5.172v-1.016a.873.873,0,0,0-.252-.639.844.844,0,0,0-.621-.254q-1.639,0-3.622.155t-3.193.229v-3.172a76.872,76.872,0,0,1,8.319-.508,3.577,3.577,0,0,1,3.789,3.807V515.9h-3.918l-.243-1.266a8.968,8.968,0,0,1-2.432,1.15,7.841,7.841,0,0,1-2.113.363h-.887a3.562,3.562,0,0,1-3.784-3.807Zm4.421-.881v.251a.863.863,0,0,0,.256.638.844.844,0,0,0,.621.254h.627a10.622,10.622,0,0,0,3.031-.508v-1.527H186.68a.832.832,0,0,0-.628.254.873.873,0,0,0-.249.638Zm12.358-5.08h-1.9v-3.422h6.307V515.9h-4.407Zm4.407-4.949h-4.407v-3.559h4.407Zm2.512,10.912V498.118h4.426v13.59a.871.871,0,0,0,.252.638.843.843,0,0,0,.62.254H211.9v3.3a22.169,22.169,0,0,1-3.217.247,3.477,3.477,0,0,1-2.56-1.034,3.746,3.746,0,0,1-1.038-2.772Zm0,0" transform="translate(-89.356 -493.502)" fill="#fff"/>
    </g>
  </g>
</svg>
