<svg xmlns="http://www.w3.org/2000/svg" width="57" height="57" viewBox="0 0 57 57">
  <g id="battery" transform="translate(-7680 -615)">
    <g id="accumulator" transform="translate(7681 582.161)">
      <g id="Group_633" data-name="Group 633" transform="translate(0 38.839)">
        <path id="Path_674" data-name="Path 674" d="M7.457,3.843V2.419L8.541,1.054h2.9l1.024.913V5.26H7.457Z" fill="#0575af"/>
        <path id="Path_675" data-name="Path 675" d="M7.457,3.843V2.419L8.541,1.054h2.9l1.024.913V5.26H7.457Z" transform="translate(34)" fill="#0575af"/>
        <path id="Path_673" data-name="Path 673" d="M19.684,1.036,18.2,4.441l6.511.743H36.387L34.834,1.036Z" fill="#0575af"/>
        <path id="Path_669" data-name="Path 669" d="M54.213,50.987a2.908,2.908,0,0,0-2.9-2.9h-.881V46.418a3.245,3.245,0,0,0-2.906-3.224V41.8a2.962,2.962,0,0,0-2.958-2.959h-.868A2.96,2.96,0,0,0,40.739,41.8v1.38H36.821l-.781-2.472a1.979,1.979,0,0,0-1.964-1.6H20.137a1.978,1.978,0,0,0-1.964,1.6l-.784,2.473H13.473V41.8a2.962,2.962,0,0,0-2.959-2.959H9.65A2.962,2.962,0,0,0,6.692,41.8v1.4a3.245,3.245,0,0,0-2.906,3.224v1.665H2.9a2.9,2.9,0,0,0-.1,5.8V75.863A2.452,2.452,0,0,0,.748,78.278v5.038a1.513,1.513,0,0,0,1.511,1.511h49.3a1.513,1.513,0,0,0,1.511-1.511V78.278a2.452,2.452,0,0,0-1.66-2.317V53.886A2.906,2.906,0,0,0,54.213,50.987Zm-11.9-9.19a1.383,1.383,0,0,1,1.38-1.383h.868A1.384,1.384,0,0,1,45.945,41.8v1.38h-3.63V41.8Zm-22.64-.619c.156-.5.3-.5.461-.5H34.076c.164,0,.305,0,.462.5l.631,2H19.042ZM8.268,41.8A1.384,1.384,0,0,1,9.65,40.415h.865A1.384,1.384,0,0,1,11.9,41.8v1.38H8.268Zm-2.906,4.62a1.667,1.667,0,0,1,1.665-1.665h40.16a1.667,1.667,0,0,1,1.665,1.665v1.665H5.361ZM51.5,83.251H2.323V78.278a.873.873,0,0,1,.872-.872h1.5a.875.875,0,0,1,.875.872v1.531a.788.788,0,0,0,.788.788H25.5a.788.788,0,0,0,0-1.576H7.142v-.743A2.452,2.452,0,0,0,4.691,75.83H4.374V53.889H25.5a.788.788,0,1,0,0-1.576H2.9a1.327,1.327,0,0,1,0-2.654H51.308a1.327,1.327,0,1,1,0,2.654H29.167a.788.788,0,1,0,0,1.576H49.839V75.83h-.71a2.451,2.451,0,0,0-2.448,2.448v.743H29.167a.788.788,0,0,0,0,1.576h18.3a.788.788,0,0,0,.788-.788V78.278a.873.873,0,0,1,.872-.872h1.5a.873.873,0,0,1,.872.872v4.973Z" transform="translate(0 -38.839)" fill="#182c61"/>
        <path id="Path_670" data-name="Path 670" d="M209.438,223.489c-.312-.632-1.107-.632-1.406-.632h-3.56l1.225-5.024c.108-.444.332-1.367-.4-1.716-.762-.363-1.387.456-1.841,1.053l-5.825,7.605c-.293.383-.783,1.024-.46,1.678a1.457,1.457,0,0,0,1.4.636h3.556l-1.221,5.024c-.187.781-.033,1.3.458,1.53a.914.914,0,0,0,.4.093c.646,0,1.185-.7,1.385-.96l5.821-7.608C209.279,224.756,209.756,224.133,209.438,223.489Z" transform="translate(-176.199 -197.266)" fill="#0575af"/>
        <path id="Path_671" data-name="Path 671" d="M377.206,237.572h.95v.953a.788.788,0,1,0,1.576,0v-.953h.953a.788.788,0,1,0,0-1.576h-.953v-.953a.788.788,0,1,0-1.576,0V236h-.95a.788.788,0,1,0,0,1.576Z" transform="translate(-336.561 -213.563)" fill="#0575af"/>
        <path id="Path_672" data-name="Path 672" d="M86.011,250.7h-3a.788.788,0,0,0,0,1.576h3a.788.788,0,1,0,0-1.576Z" transform="translate(-73.518 -228.267)" fill="#0575af"/>
      </g>
    </g>
    <rect id="Rectangle_1326" data-name="Rectangle 1326" width="57" height="57" transform="translate(7680 615)" fill="none"/>
  </g>
</svg>
