<svg xmlns="http://www.w3.org/2000/svg" width="57" height="57" viewBox="0 0 57 57">
  <g id="tyre" transform="translate(-7530 -610)">
    <rect id="Rectangle_1324" data-name="Rectangle 1324" width="57" height="57" transform="translate(7530 610)" fill="none"/>
    <g id="Group_624" data-name="Group 624" transform="translate(21.839 -9.214)">
      <g id="tyre-2" data-name="tyre" transform="translate(7508.752 619.803)">
        <path id="Path_658" data-name="Path 658" d="M35.56.962A28.2,28.2,0,1,0,52.681,14.1,28.2,28.2,0,0,0,35.56.962Zm18.123,34.05A26.32,26.32,0,1,1,51.053,15.04a26.319,26.319,0,0,1,2.631,19.972Zm0,0" transform="translate(-0.063 0)" fill="#182c61"/>
        <path id="Path_659" data-name="Path 659" d="M62.526,55.011a23.815,23.815,0,0,1,2.256-1.128.94.94,0,0,0-.752-1.724,25.88,25.88,0,0,0-2.438,1.22A24.187,24.187,0,0,0,51.327,64.957a.94.94,0,1,0,1.731.734,22.307,22.307,0,0,1,9.468-10.679Zm0,0" transform="translate(-45.613 -46.344)" fill="#182c61"/>
        <path id="Path_660" data-name="Path 660" d="M326.006,331.262a.94.94,0,0,0-1.233.5,22.31,22.31,0,0,1-9.474,10.682,23.025,23.025,0,0,1-4.678,2.031.94.94,0,0,0,.279,1.839.9.9,0,0,0,.276-.041,25.026,25.026,0,0,0,5.063-2.2A24.189,24.189,0,0,0,326.5,332.494a.94.94,0,0,0-.5-1.232Zm0,0" transform="translate(-275.822 -294.707)" fill="#0575af"/>
        <path id="Path_661" data-name="Path 661" d="M123.153,125.826c.013-.009.028-.009.041-.018a.8.8,0,0,0,.062-.065,17.891,17.891,0,0,0,6.328-16.526c0-.011-.006-.021-.006-.031a17.577,17.577,0,0,0-6.322-11.043c-.024-.02-.037-.047-.062-.065-.01-.006-.023-.007-.033-.014a17.887,17.887,0,0,0-17.569-2.789c-.009,0-.02,0-.03.008l-.012.009a16.307,16.307,0,0,0-4.8,2.768c-.013.009-.028.009-.041.018a.884.884,0,0,0-.062.065,17.892,17.892,0,0,0-6.327,16.526c0,.011.006.021.006.031a17.76,17.76,0,0,0,28.828,11.126Zm-7.485-9.525c-.026.015-.052.031-.077.048l-.8.47-1.643.949a.927.927,0,0,0-.449.711,6.7,6.7,0,0,1-1.834-.06,1.88,1.88,0,0,0-.852-1.083l-1.756-1.014a1.88,1.88,0,0,0-1.37-.194,5.834,5.834,0,0,1-1.084-1.876,1.871,1.871,0,0,0,.512-1.293v-2.03a1.863,1.863,0,0,0-.512-1.286,6.651,6.651,0,0,1,.867-1.6.883.883,0,0,0,.839-.037l.7-.4c.01-.006.022-.007.033-.013a.82.82,0,0,0,.077-.048l.8-.47,1.643-.949a.929.929,0,0,0,.45-.711,6.693,6.693,0,0,1,1.826.059,1.88,1.88,0,0,0,.862,1.083l1.75,1.017a1.881,1.881,0,0,0,1.378.2,6.632,6.632,0,0,1,.629.888,6.371,6.371,0,0,1,.451.984,1.869,1.869,0,0,0-.512,1.293v2.03a1.863,1.863,0,0,0,.511,1.286,6.645,6.645,0,0,1-.868,1.605.924.924,0,0,0-.836.035l-.686.4C115.7,116.289,115.682,116.293,115.668,116.3ZM102.6,124.731l4.712-6.785,1.756,1.013-3.521,7.47Zm-6.514-14.5,8.343.7v2.034l-8.353.7a15.976,15.976,0,0,1,.009-3.43Zm25.285-11.185-4.788,6.9-1.756-1.014,3.577-7.587a15.922,15.922,0,0,1,2.968,1.709Zm6.439,14.61-8.342-.7v-2.034l8.353-.7a15.951,15.951,0,0,1-.009,3.43Zm-4.986,9.98-4.377-6.3a8.5,8.5,0,0,0,1.417-2.45l7.632.637a15.957,15.957,0,0,1-4.672,8.111Zm2.963-19.68a15.936,15.936,0,0,1,1.734,4.418l-7.656.639a8.218,8.218,0,0,0-.586-1.3,8.471,8.471,0,0,0-.829-1.165l4.381-6.3A15.935,15.935,0,0,1,125.791,103.953Zm-13.867-7.99a16.078,16.078,0,0,1,4.717.716l-3.273,6.941a8.5,8.5,0,0,0-2.838-.009l-3.272-6.941a15.9,15.9,0,0,1,4.666-.708ZM103.962,98.1a15.91,15.91,0,0,1,1.529-.768l3.572,7.591-.9.524-.846.487-4.794-6.895A16,16,0,0,1,103.962,98.1Zm-2.886,2.148,4.376,6.3a8.505,8.505,0,0,0-1.416,2.45l-7.633-.637A15.958,15.958,0,0,1,101.075,100.252Zm-2.963,19.68a15.937,15.937,0,0,1-1.734-4.418l7.656-.639a8.231,8.231,0,0,0,.59,1.293,8.427,8.427,0,0,0,.827,1.161l-4.381,6.308A15.941,15.941,0,0,1,98.113,119.932Zm9.153,7.262,3.267-6.933a8.555,8.555,0,0,0,1.447.139,8.394,8.394,0,0,0,1.392-.13l3.269,6.935a15.955,15.955,0,0,1-9.376-.011Zm11.148-.64-3.572-7.6.9-.524.846-.487,4.794,6.895a15.5,15.5,0,0,1-2.963,1.712Zm0,0" transform="translate(-83.754 -83.742)" fill="#182c61"/>
        <path id="Path_664" data-name="Path 664" d="M113.012,113.74c-.026.015-.052.031-.077.048l-.8.47-1.643.949a.927.927,0,0,0-.449.711,6.7,6.7,0,0,1-1.834-.06,1.88,1.88,0,0,0-.852-1.083l-1.756-1.014a1.88,1.88,0,0,0-1.37-.194,5.834,5.834,0,0,1-1.084-1.876,1.871,1.871,0,0,0,.512-1.293v-2.03a1.863,1.863,0,0,0-.512-1.286,6.651,6.651,0,0,1,.867-1.6.883.883,0,0,0,.839-.037l.7-.4c.01-.006.022-.007.033-.013a.82.82,0,0,0,.077-.048l.8-.47,1.643-.949a.929.929,0,0,0,.45-.711,6.693,6.693,0,0,1,1.826.059,1.88,1.88,0,0,0,.862,1.083l1.75,1.017a1.881,1.881,0,0,0,1.378.2,6.632,6.632,0,0,1,.629.888,6.371,6.371,0,0,1,.451.984,1.869,1.869,0,0,0-.512,1.293v2.03a1.863,1.863,0,0,0,.511,1.286,6.645,6.645,0,0,1-.868,1.605.924.924,0,0,0-.836.035l-.686.4C113.041,113.729,113.026,113.733,113.012,113.74Z" transform="translate(-81.098 -81.183)" fill="#0575af"/>
        <path id="Path_662" data-name="Path 662" d="M226.659,222.013a3.76,3.76,0,1,0,2.283,1.751A3.759,3.759,0,0,0,226.659,222.013Z" transform="translate(-197.488 -197.444)" fill="#182c61"/>
        <path id="Path_663" data-name="Path 663" d="M189.669,43.62a.94.94,0,1,1-.94-.94A.94.94,0,0,1,189.669,43.62Zm0,0" transform="translate(-167.111 -37.978)" fill="#182c61"/>
      </g>
      <g id="Ellipse_60" data-name="Ellipse 60" transform="translate(7520.72 631.705)" fill="none" stroke="#0575af" stroke-width="2">
        <circle cx="16.177" cy="16.177" r="16.177" stroke="none"/>
        <circle cx="16.177" cy="16.177" r="17.177" fill="none"/>
      </g>
    </g>
  </g>
</svg>
